:version 1.10
:name ASF
:units
  mass 1
  length 1
  angle deg
:documentation
  ASF file generated by Kaydara
:root
  axis xyz
  order  tx ty tz rx ry rz
  position 0 0 0
  orientation 0 0 0
:bonedata
  begin
    id 1
    name RightUpLegDummy
    direction -0.65628 -0.754516 0.00165102
    length 4.76918
    axis 0 0 0 xyz
  end
  begin
    id 2
    name RightUpLeg
    direction -0.145584 -0.923362 0.355256
    length 17.9961
    axis -24.7611 -13.1006 1.78531 xyz
    dof rx ry rz
  end
  begin
    id 3
    name RightLeg
    direction 0.263379 0.172355 -0.949171
    length 13.3386
    axis 89.6202 -21.1929 12.3855 xyz
    dof rx ry rz
  end
  begin
    id 4
    name RightFoot
    direction 0.224283 -0.968777 -0.105675
    length 5.86697
    axis 56.995 -39.6905 17.3365 xyz
    dof rx ry rz
  end
  begin
    id 5
    name RightToes
    direction -0.0806345 -0.9037 0.420506
    length 4.75197
    axis 146.825 -39.7828 17.6019 xyz
    dof rx ry rz
  end
  begin
    id 6
    name SpineDummy
    direction -3.39852e-014 1 9.33296e-014
    length 8.13779
    axis 0 0 0 xyz
  end
  begin
    id 7
    name Spine
    direction -0.156609 0.733703 0.661176
    length 7.14978
    axis 41.2365 5.68757 17.0844 xyz
    dof rx ry rz
  end
  begin
    id 8
    name Spine1
    direction 0 0 0
    length 0
    axis 42.8809 47.8308 -3.36039 xyz
    dof rx ry rz
  end
  begin
    id 9
    name HEadDummy
    direction 0.546431 0.701947 0.456819
    length 3.55512
    axis 42.8809 47.8308 -3.36039 xyz
  end
  begin
    id 10
    name HEad
    direction 0.23444 0.828559 0.508457
    length 7.35827
    axis 51.1864 49.2662 27.4903 xyz
    dof rx ry rz
  end
  begin
    id 11
    name LeftShoulder1Dummy
    direction 0.431183 0.475873 -0.766568
    length 2.49352
    axis 42.8809 47.8308 -3.36039 xyz
  end
  begin
    id 12
    name LeftShoulder1
    direction 0.268187 -0.383402 -0.883786
    length 4.48604
    axis -119.517 0.106469 35.1736 xyz
    dof rx ry rz
  end
  begin
    id 13
    name LeftArm
    direction 0.380567 -0.703221 -0.600541
    length 10.1142
    axis -5.41825 36.2925 7.8293 xyz
    dof rx ry rz
  end
  begin
    id 14
    name LeftForeArm
    direction 0.541071 -0.732356 -0.413396
    length 9.39839
    axis 4.65387 33.7604 7.81644 xyz
    dof rx ry rz
  end
  begin
    id 15
    name LeftHand
    direction 0.847511 -0.389379 -0.360707
    length 3.66142
    axis 7.65593 21.1436 -24.6758 xyz
    dof rx ry rz
  end
  begin
    id 16
    name RightShoulderDummy
    direction -0.692546 0.541855 0.476208
    length 2.49352
    axis 42.8809 47.8308 -3.36039 xyz
  end
  begin
    id 17
    name RightShoulder
    direction -0.870808 -0.316653 0.376065
    length 4.48602
    axis 141.571 51.133 -100.254 xyz
    dof rx ry rz
  end
  begin
    id 18
    name RightArm
    direction 0.366897 -0.87275 0.322015
    length 10.1142
    axis 92.3258 71.2036 138.917 xyz
    dof rx ry rz
  end
  begin
    id 19
    name RightForeArm
    direction 0.702487 -0.694568 0.155197
    length 9.39835
    axis 153.863 41.5092 -176.604 xyz
    dof rx ry rz
  end
  begin
    id 20
    name RightHand
    direction 0.79502 -0.601276 0.0800636
    length 3.66142
    axis 154.247 4.59222 142.9 xyz
    dof rx ry rz
  end
  begin
    id 21
    name LeftUpLegDummy
    direction 0.65628 -0.754516 0.00165102
    length 4.76919
    axis 0 0 0 xyz
  end
  begin
    id 22
    name LeftUpLeg
    direction -0.1277 -0.689368 0.713067
    length 17.9961
    axis -48.3385 -17.8675 0.791927 xyz
    dof rx ry rz
  end
  begin
    id 23
    name LeftLeg
    direction 0.109849 -0.991246 -0.0732378
    length 13.3386
    axis -2.05791 -7.30784 1.72042 xyz
    dof rx ry rz
  end
  begin
    id 24
    name LeftFoot
    direction 0.0448355 -0.272614 0.961078
    length 5.86697
    axis -18.7733 -7.89606 10.2113 xyz
    dof rx ry rz
  end
  begin
    id 25
    name LeftToes
    direction -0.18506 0.293668 0.937823
    length 4.75197
    axis 71.2267 -7.89606 10.2113 xyz
    dof rx ry rz
  end
:hierarchy
  begin
    root RightUpLegDummy SpineDummy LeftUpLegDummy
    RightUpLegDummy RightUpLeg
    RightUpLeg RightLeg
    RightLeg RightFoot
    RightFoot RightToes
    SpineDummy Spine
    Spine Spine1
    Spine1 HEadDummy LeftShoulder1Dummy RightShoulderDummy
    HEadDummy HEad
    LeftShoulder1Dummy LeftShoulder1
    LeftShoulder1 LeftArm
    LeftArm LeftForeArm
    LeftForeArm LeftHand
    RightShoulderDummy RightShoulder
    RightShoulder RightArm
    RightArm RightForeArm
    RightForeArm RightHand
    LeftUpLegDummy LeftUpLeg
    LeftUpLeg LeftLeg
    LeftLeg LeftFoot
    LeftFoot LeftToes
  end

:SAMPLES-PER-SECOND 30
:FULLY-SPECIFIED
:DEGREES
793
root  -15.4186 37.8754 27.0729 168.231 24.9479 174.992
RightUpLeg  28.7468 11.9056 21.3792
RightLeg  -77.2462 -14.858 3.76924
RightFoot  6.8351 13.9482 -31.9216
RightToes  -1.27222e-014 -6.36111e-015 6.36111e-015
Spine  -37.991 -9.88327 -11.2177
Spine1  9.13725 -6.95386 37.0638
HEad  -5.4789 -6.36747 -10.5566
LeftShoulder1  6.36111e-015 -1.33558e-015 6.49777e-015
LeftArm  36.9254 13.6976 -7.62492
LeftForeArm  5.10635 -18.8622 -6.72976
LeftHand  -2.27904 -4.67003 -12.2551
RightShoulder  -4.77083e-015 -6.36111e-015 -3.18055e-015
RightArm  33.8851 -29.5702 -8.13275
RightForeArm  -40.3622 16.3079 -36.5268
RightHand  -0.355188 1.09356 1.43785
LeftUpLeg  24.7522 22.5843 4.49381
LeftLeg  5.73492 -10.8487 -1.91047
LeftFoot  9.2879 2.70031 -7.03416
LeftToes  1.27222e-014 -5.20697e-012 1.80337e-011
794
root  -15.039 37.6131 26.6744 167.535 23.8614 175.042
RightUpLeg  29.0654 10.2194 20.9119
RightLeg  -74.9007 -15.412 4.11592
RightFoot  6.22691 13.8778 -31.8717
RightToes  -1.27222e-014 -6.36111e-015 6.36111e-015
Spine  -37.9236 -10.5125 -12.7927
Spine1  10.4092 -6.52346 37.2165
HEad  -5.70354 -8.75364 -8.04716
LeftShoulder1  6.36111e-015 -1.33558e-015 6.49777e-015
LeftArm  36.6501 14.9332 -5.6017
LeftForeArm  2.35598 -18.3382 -4.64368
LeftHand  -2.2636 -4.65973 -11.8996
RightShoulder  -4.77083e-015 -6.36111e-015 -3.18055e-015
RightArm  32.8315 -29.6414 -8.98802
RightForeArm  -41.7995 16.4207 -37.6022
RightHand  -0.133503 0.527594 0.384281
LeftUpLeg  26.8389 23.0025 4.22473
LeftLeg  5.97674 -8.64295 -1.42674
LeftFoot  4.82391 1.06944 -3.12744
LeftToes  1.27222e-014 -5.20697e-012 1.80337e-011
795
root  -14.6799 37.605 26.3445 167.347 21.8966 174.39
RightUpLeg  27.4142 8.10628 18.401
RightLeg  -71.5492 -15.5144 3.13562
RightFoot  8.18287 13.7466 -31.3011
RightToes  -1.27222e-014 -6.36111e-015 6.36111e-015
Spine  -37.4431 -11.2879 -14.3819
Spine1  10.7111 -6.11534 36.1715
HEad  -5.56191 -12.2388 -5.33543
LeftShoulder1  6.36111e-015 -1.33558e-015 6.49777e-015
LeftArm  34.8743 16.1114 -3.89314
LeftForeArm  1.12775 -17.9039 -3.63301
LeftHand  -2.31051 -4.83597 -11.8365
RightShoulder  -4.77083e-015 -6.36111e-015 -3.18055e-015
RightArm  32.4984 -30.8194 -9.73764
RightForeArm  -41.9745 16.6983 -38.0879
RightHand  -0.00869433 0.233542 -0.205346
LeftUpLeg  27.1546 22.134 2.41491
LeftLeg  6.30791 -9.35906 -1.59646
LeftFoot  3.67728 1.46022 -4.40115
LeftToes  1.27222e-014 -5.20697e-012 1.80337e-011
796
root  -14.3779 37.8287 26.0585 167.945 20.1324 173.844
RightUpLeg  24.1903 4.73314 14.1473
RightLeg  -67.8653 -14.4548 0.257152
RightFoot  12.6425 13.1742 -29.6452
RightToes  -1.27222e-014 -6.36111e-015 6.36111e-015
Spine  -36.8022 -10.7918 -14.5747
Spine1  9.90015 -5.34314 32.7742
HEad  -4.76855 -16.6493 -3.11597
LeftShoulder1  6.36111e-015 -1.33558e-015 6.49777e-015
LeftArm  32.503 16.6268 -3.29531
LeftForeArm  0.987186 -17.5916 -3.30924
LeftHand  -2.34485 -4.95861 -11.8408
RightShoulder  -4.77083e-015 -6.36111e-015 -3.18055e-015
RightArm  33.2615 -33.0954 -10.4691
RightForeArm  -41.042 17.3364 -38.3034
RightHand  -0.0880684 0.412837 0.177305
LeftUpLeg  27.1242 21.6743 1.77478
LeftLeg  5.6284 -12.2536 -2.18179
LeftFoot  5.21001 2.12154 -6.13897
LeftToes  1.27222e-014 -5.20697e-012 1.80337e-011
797
root  -14.1279 38.1715 25.7911 168.925 19.0369 173.994
RightUpLeg  20.9994 0.203056 9.38571
RightLeg  -64.536 -11.7828 -4.53684
RightFoot  18.532 11.695 -26.6665
RightToes  -1.27222e-014 -6.36111e-015 6.36111e-015
Spine  -35.9942 -9.08005 -13.2511
Spine1  8.22612 -4.49229 28.0213
HEad  -3.49554 -20.6129 -2.20798
LeftShoulder1  6.36111e-015 -1.33558e-015 6.49777e-015
LeftArm  31.12 16.4783 -4.01564
LeftForeArm  0.906765 -18.087 -3.08917
LeftHand  -2.31303 -4.88513 -11.5016
RightShoulder  -4.77083e-015 -6.36111e-015 -3.18055e-015
RightArm  34.3722 -34.6799 -10.1111
RightForeArm  -38.8554 18.0027 -37.6547
RightHand  -0.214315 0.792778 0.677252
LeftUpLeg  28.3151 22.1922 3.49216
LeftLeg  3.52207 -15.5169 -2.53363
LeftFoot  6.495 2.16868 -6.06793
LeftToes  1.27222e-014 -5.20697e-012 1.80337e-011
798
root  -13.9097 38.4891 25.5482 169.756 17.9144 174.574
RightUpLeg  18.8977 -4.24735 4.93676
RightLeg  -61.7637 -7.88826 -10.3065
RightFoot  24.2425 9.54683 -23.3177
RightToes  -1.27222e-014 -6.36111e-015 6.36111e-015
Spine  -34.9486 -7.71769 -11.8529
Spine1  6.3394 -4.19698 24.3062
HEad  -2.37846 -22.9682 -2.70597
LeftShoulder1  6.36111e-015 -1.33558e-015 6.49777e-015
LeftArm  31.4298 16.2255 -5.84614
LeftForeArm  0.0761155 -19.734 -2.4677
LeftHand  -2.28633 -4.85565 -10.957
RightShoulder  -4.77083e-015 -6.36111e-015 -3.18055e-015
RightArm  35.0153 -33.752 -7.73795
RightForeArm  -35.2081 17.9601 -35.1531
RightHand  -0.233312 1.08179 0.429586
LeftUpLeg  30.2037 22.6791 5.64988
LeftLeg  0.992198 -18.1169 -2.46604
LeftFoot  6.65008 2.03546 -5.67407
LeftToes  1.27222e-014 -5.20697e-012 1.80337e-011
799
root  -13.6962 38.6993 25.3402 170.314 16.2746 175.036
RightUpLeg  17.6628 -7.21675 1.55383
RightLeg  -59.5885 -3.9506 -15.3378
RightFoot  29.0028 7.63113 -20.8789
RightToes  -1.27222e-014 -6.36111e-015 6.36111e-015
Spine  -34.0254 -7.55649 -11.5101
Spine1  4.94878 -4.40644 22.6714
HEad  -2.06819 -24.1084 -3.70056
LeftShoulder1  6.36111e-015 -1.33558e-015 6.49777e-015
LeftArm  32.4248 16.4087 -8.24146
LeftForeArm  -1.10505 -22.3341 -1.41818
LeftHand  -2.32434 -5.0301 -10.5809
RightShoulder  -4.77083e-015 -6.36111e-015 -3.18055e-015
RightArm  35.5062 -30.5731 -3.99678
RightForeArm  -30.6396 16.6589 -30.9389
RightHand  -0.211876 1.40987 -0.234227
LeftUpLeg  31.3244 22.3283 6.10715
LeftLeg  -0.822581 -19.3112 -2.21712
LeftFoot  6.74716 2.09316 -5.81976
LeftToes  1.27222e-014 -5.20697e-012 1.80337e-011
